<?xml version="1.0" encoding="UTF-8" standalone="no"?>
<!DOCTYPE svg PUBLIC "-//W3C//DTD SVG 1.1//EN"
 "http://www.w3.org/Graphics/SVG/1.1/DTD/svg11.dtd">
<!-- Generated by graphviz version 7.1.0 (20230121.1956)
 -->
<!-- Pages: 1 -->
<svg width="879pt" height="231pt"
 viewBox="0.00 0.00 878.65 231.00" xmlns="http://www.w3.org/2000/svg" xmlns:xlink="http://www.w3.org/1999/xlink">
<g id="graph0" class="graph" transform="scale(1 1) rotate(0) translate(4 227)">
<polygon fill="#3f3f3f" stroke="none" points="-4,4 -4,-227 874.65,-227 874.65,4 -4,4"/>
<text text-anchor="middle" x="435.32" y="-9.2" font-family="Times New Roman,serif" font-size="16.00" fill="white">Network Map</text>
<!-- R6 -->
<g id="node1" class="node">
<title>R6</title>
<polygon fill="#006699" stroke="#006699" points="94.15,-99 17.15,-99 17.15,-26 94.15,-26 94.15,-99"/>
<text text-anchor="middle" x="55.65" y="-58.8" font-family="Helvetica,sans-Serif" font-size="14.00" fill="white">R6</text>
</g>
<!-- R2 -->
<g id="node3" class="node">
<title>R2</title>
<polygon fill="#006699" stroke="#006699" points="217.15,-223 140.15,-223 140.15,-150 217.15,-150 217.15,-223"/>
<text text-anchor="middle" x="178.65" y="-182.8" font-family="Helvetica,sans-Serif" font-size="14.00" fill="white">R2</text>
</g>
<!-- R6&#45;&#45;R2 -->
<g id="edge3" class="edge">
<title>R6&#45;&#45;R2</title>
<path fill="none" stroke="green" stroke-dasharray="5,2" d="M58,-99.19C60.23,-110.62 64.31,-122.7 71.65,-132 88.7,-153.6 116.76,-167.17 139.87,-175.24"/>
<text text-anchor="middle" x="121.65" y="-120.8" font-family="Courier,monospace" font-size="14.00" fill="white"> &#160;&#160;&#160;&#160;&#160;&#160;&#160;&#160;&#160;&#160;&#160;</text>
<text text-anchor="middle" x="110.87" y="-164.04" font-family="Courier,monospace" font-size="14.00" fill="white">Eth 0/2</text>
<text text-anchor="middle" x="29" y="-102.99" font-family="Courier,monospace" font-size="14.00" fill="white">Eth 0/1</text>
</g>
<!-- SW1 -->
<g id="node2" class="node">
<title>SW1</title>
<polygon fill="#006699" stroke="#006699" points="654.15,-99 563.15,-99 563.15,-26 654.15,-26 654.15,-99"/>
<text text-anchor="middle" x="608.65" y="-58.8" font-family="Helvetica,sans-Serif" font-size="14.00" fill="white">SW1</text>
</g>
<!-- SW1&#45;&#45;R2 -->
<g id="edge5" class="edge">
<title>SW1&#45;&#45;R2</title>
<path fill="none" stroke="green" stroke-dasharray="5,2" d="M562.98,-71.38C523.93,-79.31 467.03,-93.75 421.65,-117 412.07,-121.91 412.33,-127.31 402.65,-132 341.84,-161.47 263.7,-175.35 217.61,-181.38"/>
<text text-anchor="middle" x="471.65" y="-120.8" font-family="Courier,monospace" font-size="14.00" fill="white"> &#160;&#160;&#160;&#160;&#160;&#160;&#160;&#160;&#160;&#160;&#160;</text>
<text text-anchor="middle" x="246.61" y="-170.18" font-family="Courier,monospace" font-size="14.00" fill="white">Eth 0/0</text>
<text text-anchor="middle" x="533.98" y="-60.18" font-family="Courier,monospace" font-size="14.00" fill="white">Eth 0/2</text>
</g>
<!-- R1 -->
<g id="node4" class="node">
<title>R1</title>
<polygon fill="#006699" stroke="#006699" points="709.15,-223 632.15,-223 632.15,-150 709.15,-150 709.15,-223"/>
<text text-anchor="middle" x="670.65" y="-182.8" font-family="Helvetica,sans-Serif" font-size="14.00" fill="white">R1</text>
</g>
<!-- SW1&#45;&#45;R1 -->
<g id="edge4" class="edge">
<title>SW1&#45;&#45;R1</title>
<path fill="none" stroke="green" stroke-dasharray="5,2" d="M637.88,-99.28C641.82,-105.01 645.56,-111.02 648.65,-117 653.92,-127.21 658.24,-138.93 661.62,-149.75"/>
<text text-anchor="middle" x="704.65" y="-120.8" font-family="Courier,monospace" font-size="14.00" fill="white"> &#160;&#160;&#160;&#160;&#160;&#160;&#160;&#160;&#160;&#160;&#160;</text>
<text text-anchor="middle" x="632.62" y="-138.55" font-family="Courier,monospace" font-size="14.00" fill="white">Eth 0/0</text>
<text text-anchor="middle" x="608.88" y="-103.08" font-family="Courier,monospace" font-size="14.00" fill="white">Eth 0/1</text>
</g>
<!-- R3 -->
<g id="node5" class="node">
<title>R3</title>
<polygon fill="#006699" stroke="#006699" points="832.15,-223 755.15,-223 755.15,-150 832.15,-150 832.15,-223"/>
<text text-anchor="middle" x="793.65" y="-182.8" font-family="Helvetica,sans-Serif" font-size="14.00" fill="white">R3</text>
</g>
<!-- SW1&#45;&#45;R3 -->
<g id="edge6" class="edge">
<title>SW1&#45;&#45;R3</title>
<path fill="none" stroke="green" stroke-dasharray="5,2" d="M654.52,-70.62C686.82,-77.66 729.35,-91.28 758.65,-117 768.58,-125.72 776.07,-137.94 781.51,-149.65"/>
<text text-anchor="middle" x="820.65" y="-120.8" font-family="Courier,monospace" font-size="14.00" fill="white"> &#160;&#160;&#160;&#160;&#160;&#160;&#160;&#160;&#160;&#160;&#160;</text>
<text text-anchor="middle" x="752.51" y="-138.45" font-family="Courier,monospace" font-size="14.00" fill="white">Eth 0/0</text>
<text text-anchor="middle" x="683.52" y="-59.42" font-family="Courier,monospace" font-size="14.00" fill="white">Eth 0/3</text>
</g>
<!-- R4 -->
<g id="node6" class="node">
<title>R4</title>
<polygon fill="#006699" stroke="#006699" points="463.15,-223 386.15,-223 386.15,-150 463.15,-150 463.15,-223"/>
<text text-anchor="middle" x="424.65" y="-182.8" font-family="Helvetica,sans-Serif" font-size="14.00" fill="white">R4</text>
</g>
<!-- SW1&#45;&#45;R4 -->
<g id="edge7" class="edge">
<title>SW1&#45;&#45;R4</title>
<path fill="none" stroke="green" stroke-dasharray="5,2" d="M565.83,-99.47C547.92,-114.4 530.19,-128.97 525.65,-132 506.01,-145.11 482.8,-157.59 463.59,-167.2"/>
<text text-anchor="middle" x="593.65" y="-120.8" font-family="Courier,monospace" font-size="14.00" fill="white"> &#160;&#160;&#160;&#160;&#160;&#160;&#160;&#160;&#160;&#160;&#160;</text>
<text text-anchor="middle" x="492.59" y="-156" font-family="Courier,monospace" font-size="14.00" fill="white">Eth 0/0</text>
<text text-anchor="middle" x="536.83" y="-103.27" font-family="Courier,monospace" font-size="14.00" fill="white">Eth 0/4</text>
</g>
<!-- R5 -->
<g id="node7" class="node">
<title>R5</title>
<polygon fill="#006699" stroke="#006699" points="279.15,-99 202.15,-99 202.15,-26 279.15,-26 279.15,-99"/>
<text text-anchor="middle" x="240.65" y="-58.8" font-family="Helvetica,sans-Serif" font-size="14.00" fill="white">R5</text>
</g>
<!-- R5&#45;&#45;R2 -->
<g id="edge1" class="edge">
<title>R5&#45;&#45;R2</title>
<path fill="none" stroke="green" stroke-dasharray="5,2" d="M201.76,-88.95C192.88,-96.81 184.61,-106.26 179.65,-117 175.01,-127.04 173.61,-138.83 173.7,-149.77"/>
<text text-anchor="middle" x="229.65" y="-120.8" font-family="Courier,monospace" font-size="14.00" fill="white"> &#160;&#160;&#160;&#160;&#160;&#160;&#160;&#160;&#160;&#160;&#160;</text>
<text text-anchor="middle" x="144.7" y="-138.57" font-family="Courier,monospace" font-size="14.00" fill="white">Eth 0/1</text>
<text text-anchor="middle" x="172.76" y="-77.75" font-family="Courier,monospace" font-size="14.00" fill="white">Eth 0/0</text>
</g>
<!-- R5&#45;&#45;R4 -->
<g id="edge2" class="edge">
<title>R5&#45;&#45;R4</title>
<path fill="none" stroke="green" stroke-dasharray="5,2" d="M268.08,-99.43C278.06,-110.87 290.02,-122.91 302.65,-132 328.07,-150.32 360.76,-164.23 385.9,-173.27"/>
<text text-anchor="middle" x="352.65" y="-120.8" font-family="Courier,monospace" font-size="14.00" fill="white"> &#160;&#160;&#160;&#160;&#160;&#160;&#160;&#160;&#160;&#160;&#160;</text>
<text text-anchor="middle" x="356.9" y="-162.07" font-family="Courier,monospace" font-size="14.00" fill="white">Eth 0/1</text>
<text text-anchor="middle" x="239.08" y="-103.23" font-family="Courier,monospace" font-size="14.00" fill="white">Eth 0/1</text>
</g>
</g>
</svg>
